<svg aria-hidden="true" style="width:0;height:0;position:absolute;overflow:hidden" xmlns="http://www.w3.org/2000/svg"><defs><symbol id="ic_facebook" viewBox="0 0 32 32"><path d="M13.333 0H32v18.667c0 6.77-5.045 12.363-11.582 13.219l.037-10.837h3.538l.53-4.265h-4.068V14.06c0-1.237.331-2.078 2.034-2.078h2.177V8.171c-.378-.053-1.666-.17-3.17-.17-3.136 0-5.282 1.989-5.282 5.639v3.145h-3.548v4.269h3.548V32H0V13.333C0 5.969 5.969 0 13.333 0z"/></symbol><symbol id="ic_gitHub" viewBox="0 0 32 32"><path d="M16 0C7.161 0 0 7.341 0 16.405c0 7.259 4.58 13.39 10.94 15.563.8.144 1.1-.348 1.1-.779 0-.389-.019-1.681-.019-3.055-4.02.758-5.06-1.005-5.38-1.927-.18-.473-.96-1.927-1.639-2.318-.561-.307-1.36-1.067-.021-1.087 1.261-.02 2.161 1.189 2.461 1.682 1.44 2.481 3.74 1.783 4.66 1.354.14-1.067.56-1.785 1.02-2.194-3.561-.411-7.28-1.825-7.28-8.1 0-1.783.62-3.261 1.641-4.409-.16-.411-.72-2.092.16-4.348 0 0 1.34-.43 4.399 1.682 1.28-.369 2.64-.555 4-.555s2.72.186 4 .555c3.061-2.133 4.401-1.682 4.401-1.682.88 2.256.32 3.937.16 4.348 1.02 1.148 1.639 2.604 1.639 4.409 0 6.295-3.74 7.691-7.3 8.1.58.512 1.081 1.497 1.081 3.035 0 2.194-.02 3.957-.02 4.512 0 .43.3.942 1.1.779 3.266-1.16 5.965-3.243 7.858-5.933l.034-.051a16.576 16.576 0 0 0 3.008-9.566v-.016.001c0-9.062-7.159-16.403-16-16.403z"/><path d="M0 16.405C0 7.339 7.161 0 16 0h-5.333C4.776 0 0 4.775 0 10.667v5.739zM16 0c8.841 0 16 7.341 16 16.405V0H16z"/><path d="M28.992 25.984c-1.928 2.741-4.627 4.824-7.78 5.949l-.112.035h.234c5.891 0 10.667-4.774 10.667-10.667v-4.896a16.71 16.71 0 0 1-3.008 9.579zM10.94 31.968C4.581 29.796 0 23.665 0 16.405v15.563h10.94z"/></symbol><symbol id="ic_linkedin" viewBox="0 0 32 32"><path d="M0 10.667C0 4.776 4.775 0 10.667 0H32v21.333C32 27.224 27.225 32 21.333 32H0V10.667zm16.832 2.167h-3.61v12.775h3.888V19.42c0-2.075.764-3.394 2.599-3.394 1.324 0 1.845 1.225 1.845 3.394v6.189h3.887v-7.057c0-3.809-.91-5.886-4.751-5.886-2.004 0-3.338.939-3.858 1.981v-1.813zm-6.389 12.609V12.666H6.556v12.777h3.889zm.384-15.97a2.502 2.502 0 0 0-4.075-2.705l.001-.001a2.5 2.5 0 1 0 4.069 2.723l.006-.017z"/></symbol><symbol id="ic_arrow_drop" viewBox="0 0 32 32"><path fill="#939393" style="fill:var(--color1,#939393)" d="M9.333 13.333 16 20l6.667-6.667H9.334z"/></symbol><symbol id="ic_location" viewBox="0 0 32 32"><path fill="#fff" style="fill:var(--color2,#fff)" d="M16 2.667A9.326 9.326 0 0 0 6.667 12C6.667 19 16 29.333 16 29.333S25.333 19 25.333 12A9.326 9.326 0 0 0 16 2.667zm0 12.666a3.333 3.333 0 1 1 0-6.666 3.333 3.333 0 1 1 0 6.666z"/></symbol><symbol id="ic_search" viewBox="0 0 32 32"><path fill="#939393" style="fill:var(--color1,#939393)" d="M20.667 18.667h-1.053l-.373-.36a8.582 8.582 0 0 0 2.093-5.634v-.006a8.667 8.667 0 1 0-8.667 8.667 8.63 8.63 0 0 0 5.64-2.093l.36.373v1.053l6.667 6.653 1.987-1.987-6.653-6.667zm-8 0c-3.32 0-6-2.68-6-6s2.68-6 6-6 6 2.68 6 6-2.68 6-6 6z"/></symbol><symbol id="ic_close" viewBox="0 0 32 32"><path d="m25.333 8.547-1.88-1.88L16 14.12 8.547 6.667l-1.88 1.88L14.12 16l-7.453 7.453 1.88 1.88L16 17.88l7.453 7.453 1.88-1.88L17.88 16z"/></symbol></defs></svg>